<?xml version="1.0" ?>
<svg enable-background="new 0 0 64 64" version="1.1" viewBox="0 0 64 64" xml:space="preserve" xmlns="http://www.w3.org/2000/svg" xmlns:xlink="http://www.w3.org/1999/xlink">
  <g id="Layer_1"/>
  <g id="icon">
    <g>
      <path fill="#18A0CA" d="M18.149,55.989c-0.523,0-1.049-0.124-1.533-0.376c-1.107-0.574-1.795-1.705-1.795-2.952V11.339    c0-1.247,0.688-2.378,1.795-2.952c1.105-0.576,2.427-0.485,3.446,0.232l27.406,19.292c1.104,1.091,1.711,2.543,1.711,4.089    s-0.607,2.999-1.711,4.091l-0.128,0.107L20.061,55.382C19.489,55.784,18.821,55.989,18.149,55.989z M18.151,10.009    c-0.208,0-0.418,0.051-0.614,0.153c-0.448,0.232-0.716,0.672-0.716,1.177v41.322c0,0.505,0.268,0.944,0.716,1.177    c0.447,0.233,0.962,0.197,1.373-0.092l27.208-19.133c0.686-0.707,1.062-1.632,1.062-2.613c0-0.98-0.376-1.905-1.062-2.611    L18.911,10.255C18.679,10.092,18.415,10.009,18.151,10.009z"/>
    </g>
  </g>
</svg>
