<?xml version="1.0" encoding="UTF-8"?>
<svg version="1.1" viewBox="0 0 2048 818" width="478" height="191" xmlns="http://www.w3.org/2000/svg">
<path transform="translate(360,77)" d="m0 0h728l8 3 515 1 7 3 5 4 5 11 9 23 12 36 4 11 5 12 11 33 3 11 3 5 4 8 2 9 3 7 2 7 2 5 3 9 2 10h3l17-17 4-5 3-6 11-11 8-10 3-5 11-12 3-4 3-5 18-20 3-6 14-14 5-7 3-5 13-14 3-6 12-13 7-8 3-6 5-5 5 2 20 20 11 7 16 16 4 8 5 5 1 8v10l12 12 10 6 11 11 1 2v10l2 8 6 10 26 26 8 13 5 12 2 7 2 4v8l-3 3v18l3 5 1 11 3 6 2 9 3 7 2 6 2 4v29l-3 3-1 19-3 2-1 3 3 1 2 11 2 2 2 11 3 3v48l-3 5-4 8-2 9-7 14-1 16-3 3-1 17-3 4-1 12-4 7-2 5-2 2v40l3 3v6l-1 1h-7l-21-10-11-6-5-1-6-2-2-2-7-3-9-9-7-3-11-10-8-4-5-5-7-3-10-10-7-3-8-8-10-5-5-5-5-2-12-11-16-16-6-3-10-9-16-16-14-9-12-8-13-8h-1v92l3 2 1 4v102l3 1 1 2v34l-5 6-101 1h-27l-3-1-1 4-43 1h-102l-2 4h-144l-1 4-144 1-1 3-103 1h-42l-1 3-32 1h-113l-1 4-144 1-2 3-113 1h-30l-2 3-48 1h-96l-3 4h-5l-6-7-2-9-3-6-1-15-3-7-2-11-2-5-2-12-2-3-2-18-2-2-3-16-2-5-3-13-2-10-1-10-2-3-2-13-2-3-2-14-2-3-1-7v-14l-8 7-85 85-3 7-81 81-5 1-4-8-11-12-13-13-2-5-7-3-30-15-3-1-1-2-1-9-3-3-1-52-3-3-2-11-5-4-6-3-6-5-8-4-7-7-1-2v-17l4-12-1-9-6-11-6-9-7-9-12-12-5-9-5-5-1-8v-9l-4-6 1-8 3-6 1-10 3-5v-24l-8-22-4-12v-26l6-12 6-7 3-6 7-7 3-4 2-9 2-3 1-14 3-3-2-4-4-13-2-9-2-7-4-13-2-4 1-11 3-8 5-13 4-7 3-6 2-10 1-1 9 1 16 8 6 4 22 12 11 7 16 9 20 14 11 7 15 10 8 6 9 7 9 6 11 7 9 8 8 5 8 7 8 5 12 11 11 7 19 19 10 6 10 10 5 4 1-31 3-4 1-39 4-14 1-38 3-4 1-39 3-4 1-42 3-4 1-32 1-13 3-4z" fill="#06080B"/>
<path transform="translate(1300,86)" d="m0 0h240l68 1 9 3 5 8 11 31 17 48 16 45 26 72 2 5 8-9 9-11 12-14 9-11 14-17 9-11 13-16 11-13 8-10 11-13 8-10 12-14 7-9 18-22 4-3 9 7 14 12 8 7 14 14 10 14 1 4h-3l1 7 3 7 7 7 10 8 10 9 4 5 3 16 7 12 11 12 6 5 11 14 11 22 1 9-3 9v8l7 28 9 28 1 4v15l-3 19-3 14v9l7 19 5 25v13l-4 14-8 20-5 17-10 47-8 17-1 9 1 25-1 3h2v5l-7-1-12-6-20-9-9-5-8-5v-2l-5-2-12-9-18-13-2-1v-2l-5-2-8-6-14-10-2-1v-2l-5-2-2-1v-2l-5-2-7-5v-2l-4-2-8-7-5-5-6-4v-2l-5-2-5-5-5-4-10-10-8-6v-2l-5-2v-2l-5-2-5-4-14-10-18-12-8-5v39l1 1 1 26 1 17v10l1 14 1 43 2 30v12l1 17v40l-7 1h-27l-9 1h-19l-11 1h-20l-10 1h-18l-20-40-12-26-13-27-11-23-14-30-13-27-8-18-4-8 16-10 7-7 9-14 5-12 3-15v-13l-4-13-6-11-10-14-11-12-7-8-9-11-4-8-1-10 4-17 5-16v-9l-4-3-4-1h-13l-12 3-9 5-3 1-2 4-5 11-11 31-1 2-3-1-15-30-12-26-12-25-11-23-10-22-5-13 9-30 5-25v-14l-3-10-6-9-7-4-6-2h-14l-9 3-7 5-5-1-9-19-11-24-13-27z" fill="#FCFCFC"/>
<path transform="translate(365,94)" d="m0 0 3 3 13 28 19 40 17 36 12 25 11 23 12 26 14 29 11 23 8 16 4 10 13 27 13 28 14 30 5 9 1 3-2 23-4 52-1 23v32l2 10 5 8 6 4 13 3h55l12 27 13 27 11 23 9 20 8 16 5 12 4 7 3 7 4 10 2 2v3l-13 1-37 1h-19l-10 1-73 2h-22l-9 1h-21l-12 1h-38l-3-12-4-17-6-24-1-7-2-6-1-4-20-86-10-45-1-5-5 3-54 54-7 8-6 7-8 7-12 14-13 12-23 23-7 8-17 17-7 8-20 20-5-2-8-9-5-6v-2h-2l-8-11-5-4-9-5-19-10-10-6-1-8-1-30-2-16-1-10-5-11-5-6-2-1v-2l-4-1-15-10-5-4 1-13 2-16 2-5-4-10-14-21-8-10-14-15-3-8-3-13v-9l7-28 1-12-12-38-1-9v-16l2-11 8-10 9-11 6-14 5-17v-12l-12-42-1-8 1-6 5-12 7-17 4-8 5 1 21 11 24 14 17 10 51 34 17 12 19 14 18 13 12 9 11 9 39 33 20 15 9 7 2-20 2-15v-7l2-16 1-17 2-20 3-36 2-18 2-25 2-16 1-16 2-20 2-22 2-20 1-12z" fill="#FCFCFC"/>
<path transform="translate(536,84)" d="m0 0h201l56 1 17 36 19 40 13 27 11 24 19 39 13 28 12 25 17 36 11 23 10 22 8 16-2 12-9 38-8 26-8 20-8 14-6 7-4 2-6-1-4-4-1-3-1-20 2-29 4-34 4-26v-8l-4-6-5-2h-12l-13 4-8 6-6 12-5 23-4 26-2 29v11l2 27 4 20 8 16 6 8 7 6 10 5 4 1h8l13-5 8-6 8-8 8-14 5-14 3-9 2 3 3 14 6 14 7 9 10 6 6 2h10l17-4 12-5 10-5 5 1 12 26 12 25 11 24 16 33 11 23 12 26 13 26v3l-4 1-89 3-107 3-27 1-45 1h-40l-2-1-2-6-11-22-3-7-4-9-13-27-11-23-18-39-10-21-9-20 1-5 16-10 11-9 10-9 8-8 11-14 10-15 8-16 6-15 5-17 4-21 2-15 1-14v-11l-3-31-4-21-8-23-10-19-9-12-9-10-10-9-15-10-19-9-22-7-23-4-10-1h-26l-25 3-28 6-17 5-5 1-6-10-12-25-11-23-13-28-17-36-14-30-10-21 1-2z" fill="#FCFCFC"/>
<path transform="translate(908,85)" d="m0 0h279l8 16 11 24 14 29 11 23 16 34 16 33 11 23 9 19 8 18 8 16 20 41 15 33 11 22 13 28 13 27 33 69 9 19 11 23 18 38 13 27 12 26 14 29 13 28 2 6h-21l-19 1h-33l-13 1-31 1h-21l-12 1h-15l-11 1-80 2h-23l-8-16-13-27-11-23-19-41-22-46-14-31 2-4 15-8 11-9 12-12 4 1 11 9 17 9 16 4 8 1h11l19-3 10-3 16-8 8-6 11-11 7-10 5-10 2-10v-10l-3-9-4-6-2-1h-6l-6 4-8 11-10 13-10 8-13 6-5 1h-14l-11-4-9-8-6-13-4-20v-17l4-20 8-16 5-6 9-5 7-1 6 4 3 5v7l-2 10v10l3 5 5 4 3 1h9l10-5 6-8 5-12 1-6v-13l-3-12-6-12-9-10-12-6-8-2h-17l-16 4-16 8-12 9-9 9-7 10-10 19-6 20-2 16v23l2 9-1 6-18 18-12 6-11 3-4-1-8-16-8-18-2-5 1-7 13-23 12-24 11-25 10-26 10-31 7-28 5-28 2-23v-12l-2-24-4-17-7-16-9-12-9-6-9-3h-12l-13 4-12 7-11 11-9 14-8 16-6 15-8 24-8 32-4 23-3 20-1 2h-2l-7-16-16-33-11-23-13-28-22-46-16-34-17-36-10-21-6-15z" fill="#FCFCFC"/>
<path transform="translate(366,84)" d="m0 0h107l6 12 11 24 19 40 17 36 14 29 11 23 6 13 19-6 25-6 25-4 10-1h26l23 3 17 4 20 7 19 10 12 9 10 9 10 11 10 15 9 19 6 18 4 21 3 31v11l-2 22-3 19-6 23-6 16-8 16-9 14-9 12-12 13-8 8-17 13-13 8-1 2-3 1 2 6 12 26 17 36 14 30 17 36 13 28 6 13-3 2-80 2h-21l-10-19-18-38-13-27-13-28-14-30-5-10v-2l-2 1-9 1h-47l-13-3-8-6-5-10-1-7v-32l2-38 4-47 1-15-5-8-11-23-11-24-13-27-9-19-4-10-3-9-2-8-7-16-14-29-13-28-14-30-13-27-11-23-11-24-13-27-8-18-6-12z" fill="#129ECC"/>
<path transform="translate(1110,170)" d="m0 0h12l11 4 9 7 9 13 6 14 4 17 2 24v12l-2 23-5 28-8 32-14 41-13 30-14 29-13 24-2 3 1 8 8 17 6 14 3 5 10-2 10-4 8-5 15-15 1-6-2-9v-23l3-20 6-18 10-19 9-11 9-9 13-9 13-6 16-4h17l13 4 9 6 8 9 6 12 3 12v13l-3 12-6 11-7 6-7 3h-9l-6-3-5-5-1-3v-10l2-10v-7l-3-5-5-3-9 2-9 6-8 14-4 13-2 12v17l4 20 7 14 7 6 11 4h14l10-3 11-6 8-7 11-15 6-8 6-4h6l5 4 4 8 1 5v10l-3 12-7 13-12 13-7 7-14 8-13 5-15 3-8 1h-11l-18-3-12-5-11-6-11-9-4-1-15 15-13 9-11 6-16 4-8 1h-12l-16-4-12-6-12-11-7-9v-2l-5 3-26 26-22 10-14 4-6 1h-10l-10-4-9-7-7-11-5-13-2-11-2 3-5 15-7 13-9 10-8 7-12 5-3 1h-8l-11-4-9-7-7-8-8-16-4-15-2-17-1-17v-11l2-29 5-32 5-20 5-9 7-6 10-4 5-1h12l6 3 4 6v8l-6 42-3 30-1 25 1 12 3 5 3 2 6-1 5-4 9-15 6-14 10-30 9-37 3-14v-5l7-12 7-6 11-3h12l7 2 2 3v12l-4 42-4 31-1 5h2l9 17 12 26v3l8-6 10-13 8-10 2-3-1-9-4-26-1-14v-55l2-28v-16l2-7 5-33 7-30 8-26 8-20 8-16 7-11 9-10 8-7 14-7z" fill="#129ECC"/>
<path transform="translate(799,88)" d="m0 0h103l3 5 11 22 13 28 13 27 11 23 19 40 14 30 13 27 26 56 2 3-1 18-1 16v55l2 22 3 18 1 9-10 13-13 16-4 3h-2l-7-16-13-27-1-3h-2l1-12 5-42 2-24v-12l-3-3-5-1h-12l-13 4-6 7-4 6-2-3-9-20-18-37-11-24-15-31-11-23-12-26-13-27-11-23-17-36-26-56z" fill="#E2C349"/>
<path transform="translate(1193,87)" d="m0 0h83l19 1 3 4 11 23 16 34 7 14-1 7-4 10-3-3-7-11-5-6-11-7-6-2h-11l-10 5-8 8-4 8-1 4v13l4 11 7 11 22 22 13 17 7 10 8 13 5 13 1 3 9 3h11l6-3 6-8 8-15 5-12h2l18 37 11 24 15 31 13 28 8 16 1 7-8 20-11 21-15 24-13 21-7 14-3-4-9-20-14-29-12-26-15-31-11-23-17-36-13-27-11-23-16-34-12-25-11-23-19-40-11-23-11-24-9-19z" fill="#E2C349"/>
<path transform="translate(1462,440)" d="m0 0 3 3 13 29 4 7-14 2-12 6-6 7-2 7v11l4 9 4 5 9 6 8 3 6 1h15l15-1 11 25 11 22 13 28 19 40 17 36 15 31 6 13v2l-24 1-52 1h-25l-8-15-12-26-15-31-11-23-18-38-14-29-11-23-16-35v-3h15l9-6 8-9 11-15 14-22z" fill="#E2C349"/>
<path transform="translate(631,293)" d="m0 0h22l20 3 15 5 15 8 10 8 7 7 10 15 6 14 4 15 3 24v35l-3 21-5 19-7 19-9 16-9 12-9 10-10 8-4-2-12-25-13-28-17-36-11-23-12-26-8-17-7-15-1-12-4-6-5-4-8-16-8-17 1-3 25-6z" fill="#FCFCFC"/>
<path transform="translate(366,84)" d="m0 0h107l6 12 11 24 19 40 17 36 14 29 11 23 5 10v4l-26 11-15 8-15 10-9 7-6 7-6 13-2 4-8-18-14-29-13-28-14-30-13-27-11-23-11-24-13-27-8-18-6-12z" fill="#E2C349"/>
<path transform="translate(1045,530)" d="m0 0h3l8 11 7 7 13 8 13 4 6 1h12l19-3 6 13 13 28 13 27 13 28 13 27 26 56 1 4-28 1-55 1h-19l-8-16-14-30-14-29-11-23-17-36-24-51-1-4 8-7z" fill="#E2C349"/>
<path transform="translate(1487,328)" d="m0 0h13l7 3 2 2v9l-8 27-1 11 3 9 6 9 11 12 7 8 11 14 8 13 5 12 1 5v13l-3 15-5 12-7 11-9 10-10 7-10 5-14 2h-15l-9-2-10-5-7-6-5-9-1-3v-11l3-8 6-7 12-6 13-2-6-10-12-27-13 23-16 24-13 16-7 6-4 2h-12l-4-1-7-12 1-6 9-17 9-14 12-19 10-18 8-17 6-16v-6h2l3-10 9-26 5-9 5-5 11-6z" fill="#129FCC"/>
<path transform="translate(705,579)" d="m0 0h2l32 68 14 30 17 36 13 28 6 13-3 2-80 2h-21l-10-19-18-38-13-27-13-28-14-30-5-10v-2l23-3 24-5 23-7 19-8z" fill="#E2C349"/>
<path transform="translate(1284,150)" d="m0 0h11l10 4 10 8 9 13 3 4 5-14 2-5 7-3 6-4 7-2h14l10 4 6 5 6 12 1 5v14l-5 25-8 26-1 4 5 13 14 30 10 21 11 23 16 34 10 20-1 8-2-3-8-16-13-27-13-28-13-27-13-28-5-10v-2l-2 1-6 15-9 16-7 6-3 1h-11l-9-4-5-10-4-10-10-15-13-17-11-12-14-14-7-11-4-11v-13l4-10 7-8 5-4z" fill="#B32B3C"/>
<path transform="translate(605,364)" d="m0 0 2 3 13 28 15 31 12 26 16 34 13 28 10 19 1 2-17 9-19 7-21 5-23 3h-17l-2-8h-2l-1-7 3-62 5-51 5-33 4-24z" fill="#E2C349"/>
<path transform="translate(80,541)" d="m0 0 4 2 6 9 3 2-2 4-3 22v7l20 14 3 1v2l4 2 5 6 4 10 1 13 2 16 1 27 1 8 23 12 10 6 9 6 8 10v2h2l2 5 3 1 8 10 5 2 25-25 7-8 17-17 7-8 26-26 7-6 9-11 7-7h2l2-4 9-9 7-8 51-51 3-1 2 6 11 49 19 82 1 4 2 9 1 4 5 21 4 16 3 14v2l38-1 15-1h18l10-1h21l73-2 13-1h16l50-1-4-7-4-10-8-16-4-10-7-14-9-20-14-29-11-23-10-22 1-4h2l11 22 11 24 15 32 11 23 17 36 8 16h21l80-2 2-1-13-28-19-40-16-34-13-28-16-34-4-9 1-3h3l26 56 16 34 13 27 8 16 4 10 7 15 7 14v4l5 1 4 2 69 1-1 4-144 1-2 3-113 1h-30l-2 3-48 1h-96l-3 4h-5l-6-7-2-9-3-6-1-15-3-7-2-11-2-5-2-12-2-3-2-18-2-2-3-16-2-5-3-13-2-10-1-10-2-3-2-13-2-3-2-14-2-3-1-7v-14l-8 7-85 85-3 7-81 81-5 1-4-8-11-12-13-13-2-5-7-3-30-15-3-1-1-2-1-9-3-3-1-52-3-3-2-11-5-4-6-3-6-5-8-4-7-7-1-2v-17l4-12-1-9z" fill="#06090C"/>
<path transform="translate(1105,213)" d="m0 0h7l5 6 3 7 2 14v40l-4 27-6 27-9 30-14 37-11 25-3 1-1-3v-65l3-39 5-38 7-34 5-17 7-14z" fill="#FDFDFD"/>
<path transform="translate(576,304)" d="m0 0h2l7 17 7 14v2l-21 2-12 5-6 5-4 9-5 26-5 34-2 16-2 7-3-4-16-34-17-35-8-17v-4l14-5 12-8 19-12 16-8 21-9z" fill="#E2C349"/>
<path transform="translate(1019,555)" d="m0 0 4 5 11 23 13 28 18 38 15 31 11 23 17 37 1 3 19-1 55-1h28l-13-28-14-29-13-28-12-26-8-16-14-30-9-19-2-7 4-1 12 26 11 23 13 28 16 34 11 23 24 51 2 2-1 2h50v1l38 1v1l-144 1-1 3-103 1h-42l-1 3-32 1h-182l-6-1 2-2 82-2 92-3 135-4-11-23-12-25-11-23-16-34-13-27-11-24-11-23-4-8z" fill="#040305"/>
<path transform="translate(470,77)" d="m0 0h618l5 2-1 2h-306l-280 1-53-1-92-1v-2z" fill="#0F89B2"/>
<path transform="translate(80,541)" d="m0 0 4 2 6 9 3 2-2 4-3 22v7l20 14 3 1v2l4 2 5 6 4 10 1 13 1 5-1 3-1 38-4-2-1-52-3-3-2-11-5-4-6-3-6-5-8-4-7-7-1-2v-17l4-12-1-9z" fill="#0B1318"/>
<path transform="translate(606,358)" d="m0 0 3 3 8 19 8 16 19 41 14 29 13 28 12 25 6 12v3l-4-1-10-19-16-34-18-38-12-26-19-40-5-12z" fill="#030103"/>
<path transform="translate(1465,431)" d="m0 0 4 1 8 7 8 9 11 18 3 8v5h-13l-21-42z" fill="#F7FAF8"/>
<path transform="translate(1375,249)" d="m0 0 3 1 11 24 12 25 11 24 14 29 11 23 6 12-1 8-2-3-8-16-13-27-13-28-13-27-13-28-6-12z" fill="#020103"/>
<path transform="translate(978,479)" d="m0 0 3 3 3 5 3 7 5 12 5 9 3 7-5 3h-10l-5-5-2-4-1-6v-16z" fill="#FCFCFA"/>
<path transform="translate(483,340)" d="m0 0 7 6 5 11 11 23 17 35 12 26v7l-4-4-13-27-11-24-13-27-9-19z" fill="#040104"/>
<path transform="translate(1732,693)" d="m0 0 3 3v34l-4 5h-48v-2h-17v-1l65-1-1-7v-24z" fill="#118FB8"/>
<path transform="translate(78,191)" d="m0 0 8 1 14 8 8 5 20 11 11 7 11 6 20 14 11 7 15 10 7 5-1 2-9-5-5-4-11-7-24-16-11-7-20-12-18-10-14-8-12-6z" fill="#278EA3"/>
<path transform="translate(1087,479)" d="m0 0 3 3 8 18 7 12v2l-8-1-8-9-6-13v-6z" fill="#E0BD49"/>
<path transform="translate(938,753)" d="m0 0h77v4l-32 1h-18l-4-1v-2h-35v-1z" fill="#1D9CC4"/>
<path transform="translate(1387,740)" d="m0 0h27l38 1v3l-4 1h-28l-32-1v-1l-23-1v-1z" fill="#21A1C3"/>
<path transform="translate(508,766)" d="m0 0h70v4l-48 1h-23v-1h21v-3h-20z" fill="#25A2C0"/>
<path transform="translate(281,663)" d="m0 0h2l-2 5-60 60h-2l2-4 10-10 7-8z" fill="#129DCA"/>
<path transform="translate(979,473)" d="m0 0h2l9 17 12 26 1 4-1 2-4-2-2-5-12-24-3-7-2-4z" fill="#040A0F"/>
<path transform="translate(794,757)" d="m0 0 76 1-1 4h-23l-38-1v-1l-14-1z" fill="#27A1BD"/>
<path transform="translate(1464,435)" d="m0 0 3 3 11 23 8 18-5-1-6-10-8-18-5-11z" fill="#010103"/>
<path transform="translate(1218,744)" d="m0 0 89 1v3h-58v-1l-31-1z" fill="#129FCD"/>
<path transform="translate(1724,486)" d="m0 0 9 6 4 4-6-1-4-2v13l-1 1-1 25-2-1-2-30 1-13z" fill="#219FBF"/>
<path transform="translate(1090,474)" d="m0 0 2 2 15 34 3 5-3 1-7-10-9-19-3-7 1-5z" fill="#060305"/>
<path transform="translate(1726,586)" d="m0 0 4 1v34l-1 23h-1l-2-37z" fill="#129FCD"/>
<path transform="translate(146,228)" d="m0 0 5 2 51 34v3l-9-5-5-4-11-7-24-16-7-5z" fill="#1D97B8"/>
<path transform="translate(578,304)" d="m0 0 4 1 14 30v3l-4-1-13-27z" fill="#020103"/>
<path transform="translate(1537,737)" d="m0 0h62l-1 3h-39v-2h-22z" fill="#119DCB"/>
<path transform="translate(38,355)" d="m0 0h1v35h-3l-2-5v-26z" fill="#119DCA"/>
<path transform="translate(1114,750)" d="m0 0h47v3h-37l-10-2z" fill="#139FCB"/>
<path transform="translate(684,763)" d="m0 0h40l-1 3h-37l-2-1z" fill="#129FCD"/>
<path transform="translate(340,287)" d="m0 0h3l-1 26-2 2-1 10h-1v-31z" fill="#4597A7"/>
<path transform="translate(358,102)" d="m0 0 2 4-2 26-2 14h-1v-29l1-13z" fill="#46919A"/>
<path transform="translate(123,642)" d="m0 0h1v39l-4-2 1-25z" fill="#129FCD"/>
<path transform="translate(344,240)" d="m0 0h3v11l-1 16-1 6h-1l-1-10v-21z" fill="#1094BF"/>
<path transform="translate(336,334)" d="m0 0h2v20l-1 3h-2l-1-8v-12z" fill="#32A4B8"/>
<path transform="translate(1845,106)" d="m0 0 5 2 12 12-1 2-11-10-6-1-6 8-1-2 3-6z" fill="#108CB5"/>
<path transform="translate(349,197)" d="m0 0h2v13l-2 19h-1l-1-30z" fill="#149FCB"/>
<path transform="translate(353,150)" d="m0 0h3l-2 25-2 2v-26z" fill="#119CCA"/>
<path transform="translate(1949,651)" d="m0 0 9 3 13 6 3 1v2l-3 1-21-10z" fill="#1888A8"/>
<path transform="translate(1716,264)" d="m0 0v3l-5 7h-2l-2 4-10 10-3 1v-3l8-7 11-11z" fill="#179BC5"/>
<path transform="translate(78,191)" d="m0 0 8 1 14 8 4 4-5-1-19-10z" fill="#197392"/>
<path transform="translate(1915,633)" d="m0 0 11 7 6 3 1 3-5-1-2-2-7-3-4-4z" fill="#1181A7"/>
<path transform="translate(1924,197)" d="m0 0 6 4 10 10 1 3-2 4-4-8-5-4-6-7z" fill="#1389AD"/>
<path transform="translate(52,505)" d="m0 0 7 6 9 9 3 4v2h-2l-7-8-9-9z" fill="#19A0C8"/>
<path transform="translate(1734,242)" d="m0 0h2l-2 4-11 12-5 5 1-5 12-12z" fill="#21A1C3"/>
<path transform="translate(1774,194)" d="m0 0v3l-7 8-9 10-1-3 12-13z" fill="#1090BA"/>
<path transform="translate(1877,133)" d="m0 0 5 3 15 15 1 4-7-6-1-3h-2l-6-7-5-4z" fill="#1092BD"/>
<path transform="translate(1834,121)" d="m0 0v3l-9 10-7 8-1-3 14-15z" fill="#2095B3"/>
<path transform="translate(124,689)" d="m0 0 6 2 13 7-3 2-12-6-3-1z" fill="#247891"/>
<path transform="translate(40,463)" d="m0 0h3v12l-4-1-1-6z" fill="#176883"/>
<path transform="translate(1794,170)" d="m0 0v3l-11 12-5 5 1-5z" fill="#169FCA"/>
<path transform="translate(65,204)" d="m0 0 1 2-9 21h-1v-6l6-12z" fill="#2087A3"/>
<path transform="translate(2e3 525)" d="m0 0h1l-1 9-5 10h-2l1-5 5-13z" fill="#1A7FA0"/>
<path transform="translate(34,359)" d="m0 0h1l2 25-2 4-1-3z" fill="#0D0707"/>
<path transform="translate(48,421)" d="m0 0 2 1 2 14-2 6h-1z" fill="#129FCD"/>
<path transform="translate(1754,218)" d="m0 0v3l-9 11-5 4 1-4 12-13z" fill="#319AAE"/>
<path transform="translate(1814,145)" d="m0 0v3l-9 11-5 4 1-4 7-7z" fill="#259EBB"/>
<path transform="translate(415,744)" d="m0 0 2 1 3 10v3h-3l-2-5z" fill="#237F92"/>
<path transform="translate(403,689)" d="m0 0 2 3 3 9-1 2-3-1-2-8z" fill="#217A95"/>
<path transform="translate(2007,504)" d="m0 0h1v9l-3 7-3 1 1-5z" fill="#1B98BB"/>
<path transform="translate(1987,300)" d="m0 0 3 1v2h2v8h-4z" fill="#0F86AD"/>
<path transform="translate(56,327)" d="m0 0 3 1-12 12 1-5z" fill="#0F89B0"/>
<path transform="translate(390,636)" d="m0 0h2l3 9v2l-3 1-2-5z" fill="#187491"/>
<path transform="translate(1981,598)" d="m0 0h1l-1 7-3 7-3 1 1-5z" fill="#1B86A2"/>
<path transform="translate(2e3 462)" d="m0 0h2l1 3v14l-2-3z" fill="#119AC7"/>
<path transform="translate(1867,599)" d="m0 0 5 2 6 5v2l-4-1-7-6z" fill="#1584A5"/>
<path transform="translate(1818,564)" d="m0 0 5 2 7 5v3l-4-2-8-7z" fill="#1EA1C5"/>
<path transform="translate(199,744)" d="m0 0 3 1-2 4-5 1-2-4z" fill="#238EA7"/>
<path transform="translate(44,485)" d="m0 0h2l1 4v8l-3-1z" fill="#1094BF"/>
<path transform="translate(83,565)" d="m0 0 3 3v10l-2-2-2-9z" fill="#129FCD"/>
<path transform="translate(167,714)" d="m0 0 4 2 5 6v2l-4-2-5-5z" fill="#1789AB"/>
<path transform="translate(55,231)" d="m0 0 1 2-1 3v7l1 4-3 1v-14z" fill="#1199C5"/>
<path transform="translate(80,541)" d="m0 0 4 2 4 6-1 2-3-1z" fill="#39A0AC"/>
</svg>
