<svg width="76" height="76" viewBox="0 0 76 76" fill="none" xmlns="http://www.w3.org/2000/svg">
<circle cx="38" cy="38" r="37.5" fill="white" stroke="black"/>
<path d="M18.3125 35.125V42.25C18.3125 51.2061 18.3125 55.6854 21.096 58.4665C23.8795 61.2476 28.3564 61.25 37.3125 61.25H39.6875C48.6436 61.25 53.1229 61.25 55.904 58.4665C58.6851 55.683 58.6875 51.2061 58.6875 42.25V35.125" stroke="black" stroke-width="1.5"/>
<path d="M32.5626 13.75H44.4376L45.9861 29.2279C46.0882 30.2723 45.9705 31.3266 45.6407 32.3228C45.3109 33.319 44.7763 34.2353 44.0713 35.0125C43.3662 35.7898 42.5063 36.411 41.5468 36.836C40.5874 37.2611 39.5496 37.4807 38.5001 37.4807C37.4507 37.4807 36.4129 37.2611 35.4535 36.836C34.494 36.411 33.6341 35.7898 32.929 35.0125C32.224 34.2353 31.6894 33.319 31.3596 32.3228C31.0298 31.3266 30.9121 30.2723 31.0141 29.2279L32.5626 13.75Z" stroke="black" stroke-width="1.5"/>
<path d="M17.9088 21.7086C18.3316 19.5949 18.5429 18.538 18.9728 17.6806C19.4207 16.7877 20.0514 15.999 20.8239 15.3656C21.5964 14.7322 22.4934 14.2684 23.4568 14.0041C24.3831 13.75 25.4613 13.75 27.6178 13.75H32.5626L30.8407 30.9569C30.7498 31.9416 30.4589 32.8975 29.9858 33.7659C29.5127 34.6343 28.8673 35.397 28.0892 36.0074C27.3111 36.6177 26.4166 37.0628 25.4605 37.3154C24.5044 37.5681 23.5068 37.6229 22.5287 37.4766C21.5507 37.3303 20.6128 36.9859 19.7724 36.4645C18.9321 35.9432 18.207 35.2558 17.6416 34.4444C17.0761 33.6331 16.6822 32.7149 16.484 31.7461C16.2857 30.7772 16.2873 29.7781 16.4886 28.8099L17.9088 21.7086ZM59.0913 21.7086C58.6686 19.5949 58.4572 18.538 58.0273 17.6806C57.5794 16.7877 56.9487 15.999 56.1762 15.3656C55.4037 14.7322 54.5067 14.2684 53.5433 14.0041C52.6171 13.75 51.5388 13.75 49.3823 13.75H44.4376L46.1594 30.9569C46.2503 31.9416 46.5412 32.8975 47.0143 33.7659C47.4874 34.6343 48.1328 35.397 48.9109 36.0074C49.689 36.6177 50.5835 37.0628 51.5396 37.3154C52.4957 37.5681 53.4933 37.6229 54.4714 37.4766C55.4494 37.3303 56.3873 36.9859 57.2277 36.4645C58.068 35.9432 58.7931 35.2558 59.3585 34.4444C59.924 33.6331 60.3179 32.7149 60.5161 31.7461C60.7144 30.7772 60.7128 29.7781 60.5116 28.8099L59.0913 21.7086Z" stroke="black" stroke-width="1.5"/>
<path d="M32.5625 60.0625V52.9375C32.5625 50.7169 32.5625 49.6077 33.0399 48.7812C33.3525 48.2397 33.8022 47.79 34.3438 47.4774C35.1702 47 36.2794 47 38.5 47C40.7206 47 41.8298 47 42.6562 47.4774C43.1978 47.79 43.6475 48.2397 43.9601 48.7812C44.4375 49.6077 44.4375 50.7169 44.4375 52.9375V60.0625" stroke="black" stroke-width="1.5" stroke-linecap="round"/>
</svg>
